<mxfile host="65bd71144e">
    <diagram id="gIFP0WdfT3nuxRuxNRm4" name="ページ1">
        <mxGraphModel dx="708" dy="855" grid="1" gridSize="10" guides="1" tooltips="1" connect="1" arrows="1" fold="1" page="1" pageScale="1" pageWidth="827" pageHeight="1169" math="0" shadow="0">
            <root>
                <mxCell id="0"/>
                <mxCell id="1" parent="0"/>
                <mxCell id="2" value="" style="shape=image;verticalLabelPosition=bottom;labelBackgroundColor=#ffffff;verticalAlign=top;aspect=fixed;imageAspect=0;image=data:image/png,iVBORw0KGgoAAAANSUhEUgAAAggAAAIICAYAAAAL/BZjAAAgAElEQVR4Xu3dd3wVxbvH8YeaEDrSQi9WmhUUKwoKokiRJiigIqCAiGBBAelIk2YBVATpIE1EBPWqIPzAXkGa9BZ6KKEEcl9zMJpkd8+cOUkos5/9596fmdnd5z0J53t2Z2czxJ9NSBA2BBBAAAEEEEAgiUAGAgK/DwgggAACCCCQUoCAwO8EAggggAACCDgECAj8UiCAAAIIIIAAAYHfAQQQQAABBBDQC3AFQW9ECwQQQAABBHwnQEDw3ZBTMAIIIIAAAnoBAoLeiBYIIIAAAgj4ToCA4Lshp2AEEEAAAQT0AgQEvREtEEAAAQQQ8J0AAcF3Q07BCCCAAAII6AUICHojWiCAAAIIIOA7AQKC74acghFAAAEEENALEBD0RrRAAAEEEEDAdwIEBN8NOQUjgAACCCCgFyAg6I1ogQACCCCAgO8ECAi+G3IKRgABBBBAQC9AQNAb0QIBBBBAAAHfCRAQfDfkFIwAAggggIBegICgN6IFAggggAACvhMgIPhuyCkYAQQQQAABvQABQW9ECwQQQAABBHwnQEDw3ZBTMAIIIIAAAnoBAoLeiBYIIIAAAgj4ToCA4Lshp2AEEEAAAQT0AgQEvREtEEAAAQQQ8J0AAcF3Q07BCCCAAAII6AUICHojWiCAAAIIIOA7AQKC74acghFAAAEEENALEBD0RrRAAAEEEEDAdwIEBN8NOQUjgAACCCCgFyAg6I1ogQACCCCAgO8ECAi+G3IKRgABBBBAQC9AQNAb0QIBBBBAAAHfCRAQfDfkFIwAAggggIBegICgN6IFAggggAACvhMgIPhuyCkYAQQQQAABvQABQW9ECwQQQAABBHwnQEDw3ZBTMAIIIIAAAnoBAoLeiBYIIIAAAgj4ToCA4Lshp2AEEEAAAQT0AgQEvREtEEAAAQQQ8J0AAcF3Q07BCCCAAAII6AUICHojWiCAAAIIIOA7AQKC74acghFAAAEEENALEBD0RrRAAAEEEEDAdwIEBN8NOQUjgAACCCCgFyAg6I1ogQACCCCAgO8ECAi+G3IKRgABBBBAQC9AQNAb0QIBBBBAAAHfCRAQfDfkFIwAAggggIBegICgN6IFAggggAACvhMgIPhuyCkYAQQQQAABvQABQW9ECwQQQAABBHwnQEDw3ZBTMAIIIIAAAnoBAoLeiBYIIIAAAgj4ToCA4Lshp2AEEEAAAQT0AgQEvREtEEAAAQQQ8J0AAcF3Q07BCCCAAAII6AUICHojWiCAAAIIIOA7AQKC74acghFAAAEEENALEBD0RrRAAAEEEEDAdwIEBN8NOQUjgAACCCCgFyAg6I1ogQACCCCAgO8ECAi+G3IKRgABBBBAQC9AQNAb0QIBBBBAAAHfCRAQfDfkFIwAAggggIBegICgN6IFAggggAACvhMgIPhuyCkYAQQQQAABvQABQW9ECwQQQAABBHwnQEDw3ZBTMAIIIIAAAnoBAoLeiBYIIIAAAgj4ToCA4Lshp2AEEEAAAQT0AgQEvREtEEAAAQQQ8J0AAcF3Q07BCCCAAAII6AUICHojWiCAAAIIIOA7AQKC74acghFAAAEEENALEBD0RrRAAAEEEEDAdwIEBN8NOQUjgAACCCCgFyAg6I1ogQACCCCAgO8ECAi+G3IKRgABBBBAQC9AQNAb0QIBBBBAAAHfCRAQfDfkFIwAAggggIBegICgN6IFAggggAACvhMgIPhuyCkYAQQQQAABvQABQW9ECwQQQAABBHwnQEDw3ZBTMAIIIIAAAnoBAoLeiBYIIIAAAgj4ToCA4Lshp2AEEEAAAQT0AgQEvREtEEAAAQQQ8J0AAcF3Q07BCCCAAAII6AUICHojWiCAAAIIIOA7AQKC74acghFAAAEEENALEBD0RrRAAAEEEEDAdwIEBN8NOQUjgAACCCCgFyAg6I1ogQACCCCAgO8ECAi+G3IKRgABBBBAQC9AQNAb0QIBBBBAAAHfCRAQfDfkFIwAAggggIBegICgN6IFAggggAACvhMgIPhuyCkYAQQQQAABvQABQW9ECwQQQAABBHwnQEDw3ZBTMAIIIIAAAnoBAoLeiBYIIIAAAgj4ToCA4Lshp2AEEEAAAQT0AgQEvREtEEAAAQQQ8J0AAcF3Q07BCCCAAAII6AUICHojWiCAAAIIIOA7AQKC74acghFAAAEEENALEBD0RrRAAAEEEEDAdwIEBN8NOQUjgAACCCCgFyAg6I1ogQACCCCAgO8ECAi+G3IKRgABBBBAQC9AQNAb0QIBBBBAAAHfCRAQfDfkFIwAAggggIBegICgN6IFAggggAACvhMgIPhuyCkYAQQQQAABvQABQW9ECwQQQAABBHwnQEDw3ZBTMAIIIIAAAnoBAoLeiBYIIIAAAgj4ToCA4Lshp2AEEEAAAQT0AgQEvREtEEAAAQQQ8J0AAcF3Q07BCCCAAAII6AUICHojWiCAAAIIIOA7AQKC74acghFAAAEEENALEBD0RrRAAAEEEEDAdwIEBN8NOQUjgAACCCCgFyAg6I1ogQACCCCAgO8ECAi+G3IKRgABBBBAQC9AQNAb0QIBBBBAAAHfCRAQfDfkFIwAAggggIBegICgN6IFAggggAACvhMgIPhuyCkYAQQQQAABvQABQW9ECwQQQAABBHwnQEDw3ZBTMAIIIIAAAnoBAoLeiBYIIIAAAgj4ToCA4Lshp2AEEEAAAQT0AgQEvREtEEAAAQQQ8J0AAcF3Q07BCCCAAAII6AUICHojWiCAAAIIIOA7AQKC74acghFAAAEEENALEBD0RrRAAAEEEEDAdwIEBN8NOQUjgAACCCCgFyAg6I1ogQACCCCAgO8ECAi+G3IKRgABBBBAQC9AQNAb0QIBBBBAAAHfCRAQfDfkFIwAAggggIBegICgN6IFAggggAACvhMgIPhuyCkYAQQQQAABvQABQW9ECwQQQAABBHwnQEDw3ZBTMAIIIIAAAnoBAoLeiBYIIIAAAgj4ToCA4Lshp2AEEEAAAQT0AgQEvREtEEAAAQQQ8J0AAcF3Q07BCCCAAAII6AUICHojWiCAAAIIIOA7AQKC74acghFAAAEEENALEBD0RrRAAAEEEEDAdwIEBN8NOQUjgAACCCCgFyAg6I1ogQACCCCAgO8ECAi+G3IKRgABBBBAQC9AQNAb0QIBBBBAAAHfCRAQfDfkFIwAAggggIBegICgN6IFAggggAACvhMgIPhuyCkYAQQQQAABvQABQW9ECwQQQAABBHwnQEDw3ZBTMAIIIIAAAnoBAoLeiBYIIIAAAgj4ToCA4Lshp2AEEEAAAQT0AgQEvREtEEAAAQQQ8J0AAcF3Q07BCCCAAAII6AUICHojWiCAAAIIIOA7AQKC74acghFAAAEEENALEBD0RrRAAAEEEEDAdwIEBN8NOQUjgAACCCCgFyAg6I1ogQACCCCAgO8ECAi+G3IKRgABBBBAQC9AQNAb0QIBBBBAAAHfCRAQfDfkFIwAAggggIBegICgN6IFAggggAACvhMgIPhuyCkYAQQQQAABvQABQW9ECwQQQAABBHwnQEDw3ZBTMAIIIIAAAnoBAoLeiBYIIIAAAgj4ToCA4Lshp2AEEEAAAQT0AgQEvREtEEAAAQQQ8J0AAcF3Q07BCCCAAAII6AUICHojWiCAAAIIIOA7AQKC74acghFAAAEEENALEBD0RrRAAAEEEEDAdwIEBN8NOQUjgAACCCCgFyAg6I1ogQACCCCAgO8ECAi+G3IKRgABBBBAQC9AQNAb0QIBBBBAAAHfCRAQfDfkFIwAAggggIBegICgN6IFAggggAACvhMgIPhuyCkYAQQQQAABvQABQW9ECwQQQAABBHwnQEDw3ZBTMAIIIIAAAnoBAoLeiBYIIIAAAgj4ToCA4Lshp2AEEEAAAQT0AgQEvREtEEAAAQQQ8J0AAcF3Q07BCCCAAAII6AUICHojWiCAAAIIIOA7AQKC74acghFAAAEEENALEBD0RrRAAAEEEEDAdwIEBN8NOQUjgAACCCCgFyAg6I1ogQACCCCAgO8ECAi+G3IKRgABBBBAQC9AQNAb0QIBBBBAAAHfCRAQfDfkFIwAAggggIBegICgN6IFAggggAACvhMgIPhuyCkYAQQQQAABvQABQW9ECwQQQAABBHwnQEDw3ZBTMAIIIIAAAnoBAoLeiBYIIIAAAgj4ToCA4Lshp2AEEEAAAQT0AgQEvREtEEAAAQQQ8J0AAcF3Q07BCCCAAAII6AUICHojWiCAAAIIIOA7AQKC74acghFAAAEEENALEBD0RrRAAAEEEEDAdwIEBN8NOQUjgAACCCCgFyAg6I1ogQACCCCAgO8ECAi+G3IKRgABBBBAQC9AQNAb0QIBBBBAAAHfCRAQfDfkFIwAAggggIBegICgN6IFAggggAACvhMgIPhuyCkYAQQQQAABvQABQW9ECwQQQAABBHwnQEDw3ZBTMAIIIIAAAnoBAoLeiBYIIIAAAgj4ToCA4Lshp2AEEEAAAQT0AgQEvREtEEAAAQQQ8J0AAcF3Q07BCCCAAAII6AUICHojWiCAAAIIIOA7AQKC74acghFAAAEEENALEBD0Rhe0RfzZhKDHz5Qhg2TIkPaneOZsggQ7cuaM6XDQtC+DPSKAAAIIhClAQAgT7nx1G/vDXpmx+pDnh3XHm/JLg3J50/R0dh89LS99sVO2xp5y3W/l6CgZfG/RND0mO0MAAQQQuLgECAgX13g4zkZdQLh1wjrPs8ydNaOMfaCElMqTNc0qafzRJtl65LTn/l68taA0uCpPmh2PHSGAAAIIXHwCBISLb0wcZ7RkY6z0+3aPnPK43fD8zQWlcbm0+cD+dU+ctP10m6fK7cWyy1CuHlwCvzWcIgIIIJA6AQJC6vzSrPcXm47ImpgT0vHmAo59xp0+K83nbZadR+M9j7fy8SvT5FxafrxF1u4/6bovNetgfqPSUjBHlpCPNfK7GOlYuYBkTI+JEiGfBQ0RQAABBEwFCAimYmnY/mxCguyPOyNNP9okx84kSMX8kfJunRKuR1Btb52w3vPo1+SPkLG1S0jWTOFPHpyz5pAMXhnjeYzRNYtK5SLZjQRu+WBdYP7E3IalJVdEJsmRNaNRfxojgAACCFwYAQLChXEPHHXQij3yzZajcuDEmcD/DhYQ1M9fX7FH5q097HrGEZkySP9q0XJ7iRxhV9R8zmbZeNh9YmLZvBHyxr1FpVD2zEb7VwEhcbu2YKQ8fX1+ua5IlNE+aIxAOAIT3hvn2u3emvdL0eLFw9klfRDwlQAB4QIM96cbYmXgij1y+kzyBwl1AeGXXcel05IdctJjLkLWjBlkacsrwqqo9rQNcuDEWde+6upFjdI5ZcDdRYz3nTQgqM7qscwapXNI77uijfd1YTqoMXK7KuP138M5S5N9JW2b+P8n/h6Ff/Xov7MOVq9qlRbHCMfIvE+DB2q6dureu5/ccFNl8x2mew+3cUz5sPGl4x8+l8nfg8lR0vLvxOS4l25bAsJ5Gjv1mf7zruPSb9lu2XXcfS6BLiCoU/3wtwPy9o/7PM+65x2FpfbluYyqWr33RGBi4mmP4FG5cDYZfX9437hSBoSkJ/bq7YXkhsJRUjRn6HMajApLg8YL5s2RD94d67qn9z6YKPkKFg7pKPHxp+WRBnXlzJlzV4uSbn379ZPy17t/YK1avkwOHjok82d/JHv27PY8Vs5cuaR5i1aSKVMmqX5frZDOKbHRtq1bZO2a1bJtyxZZuGCenA2y9kaWLFmk/sMNpdo990jhou63w4wOno6NL/aAcPbMGfm/L5aIWnFk7OhRooJ4sO3hhxtI1buqS5myl6ej2oXf9defL5a3Ro90/K1EREbKtNnzHSeofndX//6rfDJ/XuBvRbddfdWVcnfN+yUqW5RUueVWyZI17Z4A0x37Uvs5AeE8jdij87fInqOn5cgp92/p6jRCCQhq4aTbJq73/B6n7vEvalpWshjMRXjzh70y+feDnhKzHy4tRXOF9yEeLCCo70KFc2SRYXdHS5n8kedpJMwOszdmj7zc5Tk5eOCAo2Pd+g2kZeu2Ie1QBYTGdR90bTtj7gLHP1IJCWflk3lzZMqHE+XUKffbPm47y5Ahg8z+5LOQzkk1eum5DnLg4EHZv887dLrt7J33PpBC0eZXlEI+sTRoeDEHhBlTJsnKFctly+ZNRpU+8lhLadS0mVGfS62xaUB4f+zbsvBjZ3DQ1Z05c2aJLlJUWrRoKTdWvU3X3Jc/JyCk47BvPXxKlm8/JiO/2xvSUUIJCGpHaiGjerO8/2F56Ipc8tKthSRTCKsd/rDjuHRYst3z/B6/Np+0vSF/SOfv1ihYQEjavnqpnIFHNa8tlC3sY6VXx2dat5Ldu3Y5dl+9Zi1p/2znkA775++/SY+XX3C0LVq0qAx/e5yof6wSt/17Y6R3txdk+y7vKwZeB7388itk8Mg3tee0bs1qmT51kvzy00/atikbqO+5E6fNkly5zK5UGR8olR0uxoCwdfMm+fqLxTJv7tywqnvksRbSqGnzsPpeKp3OV0BI6vH4U22lTr36l9QttPMxngSEdFL+v01HZPT3e2XXMe9HE1MeulL+SBnn8RRD0rYn4s9K9693ybfbjrmevZqwOLdRGcmXLZO2ugembpT9J52XvVXHyMwZ5b0Hi8vleSO0+/FqcPMHayWDwX1rFW4eq5hPiue+eC77vfTs07J+49+OEsuXu0Ze6tFbcuTKrfV5+MFakuByCblV6zbyUP2Hk/Uf++ZIWbzoU+0+3RpMmvGRZM+RM2jfWdOmyOyZ042uTCTdYYnixWXgG6MkW9TFPdn04goICfLX6tUyqF9vOXzYfaKxbsCjoqKk36ChUqpMWV3TS/rnFyIgKLCGjZtKs5aPX9J2aX3yBIQ0FD2TkCBHTp6VWtM2mu01g8j9pXJKtzsKh/yY4ufrY6XX8t2SYp7jv8fNKAmy4vGrgp7HC1/ukGVb3UOGui9aIV+EvF+3lFktKVqv3ndCnl28XY4GubWS8gDq2LPqlZZCubKICjsXw+b1YTNs1NtSuqz+H2y3/hkzZpTW7Z6RWg/U+bfENX/+Ia++2MW1ZDW/IHv27IHHRpOqqDkDR48eCfSZMe8TUfMEvLblS7+WEUMGyZmz3re6cuTIIerc1JbyrviR2Fhp0uxRadL8sYthWIKew8UUEE7ExckjDesFjcrZsmVLNnZJ7ePi4iRH9hwyfsr0i949tSeYVgFBzcspXCC/lK9YUXbviZE///wz8Hsfd/So69L1haOLyIi3x0jWrOF/IUpt7RdbfwJCGo3IX3tPyCcbYmX2X97vTXA7VLWSOeT6gtmkSQXz9ymM+XGfTPjNeW888Tjqscfqpd2/TW4/clqe/3yHqNsgblvVolEy/L5iaaKz58hpmb32kEz546BnoHE7UJUiUXJdoWzyxHWXpcl5pGYn3gHhLSmtmTT2w6qVMqDPa47DFyxUSN55b4Jk+OfDWDUYOfR1+earrxxt76xWTSpWulaq16zt+FncsaPy8by5cvbsGWnS7DHJmMnrylGCvNz5WVm3zn3pbnU/9s5qd0uduvUkyuMqhLp3Xr7StVKhYqXUcJ6XvhdTQHj1+Wdlzdq1nnWr0FX1ttulRKnSjjbqytOKZUtl3769UrdBw/NidyEPklYBYc7CxY4yDh08KEs+XSDTp05xLfHJtk/LAw/Vu5DlX1THJiCkwXB8veWI9F66R+Livb+VOQ+TIAublJWcEZlCvmqQch/qinXVIO9pqBIdJYOqF5FsWZyLEy3dfERe/Mp5Xz3xGL3uLCy1yqbdPWb1bSj25BlpMmezHDxxxuCmgwQCVL+7o+WyKLM1GNJgaP/dxeeffSrvjB7p2OV15a+WnoOd/z1pw3dGj5DPP1vkEhAKy5jxE5P89wRp8ID7Ewjq0nK5ChVTVVKHNk/Kzh3u800yZswgH86YI+oyti3bxRIQ5syaIVMmfuB6iykyIqsMHDZKSpZ2BgNbxsG0jvQMCIFzSUiQkYP6yTfLvnWcWq2a90mbZ92v4JnWYUN7AkKYo6ieJli69agMWL7H6PJ5BkmQRyvkkxaV8gXCQWq3T9ar9zR4T2Zrff1l0jrFN/Cfdh2XZz7znphYoUCkvPdg+j3Cpt73MHJVjKz2WNLZzUR9i+pzV3RgEqN68uF8bz/98J30e62H62HdvqkkNlTf6t8a8YZ89eUXjr7vT5oiefMlnQDqHhBuveMu6fryK6kqeeuWzdKty3OiLlWn3IoXLy59Bg2V3LnT5n0eqTrRNOx8MQSEkydOyIDePeT3335zVKZuGXXr8ZrcUPnmNKz60t9VugcEEVG3fJo1dL9SMPuTRZIhAyu+qt8kAkIYf0/r952Qwati5M+9JyTII+Mp9pwg9a/KE/hWnpYz9Q/EnZG2i7bJNo9bBZIhQVa2Sj4XofnczbLxkPutBfVNf3LdknJFvvS9D3fgeLys3Hlc+i7b7fkqa7ehKZk7q1yVN6v0CWPRpjCG+t8ua//8PRAQjrl8wAYLCLt27JCXu3SSI0fOzRFIurn1c/tQu+2Ou6RLKgOCujUwY+pkxzmopydGj31PChVO64WrEmTn1i3y1pujPdn7Dx4a9qzxtWv+lBlTJsvJFI+ARkVkkVf7DgzsN/UBIUFe6/aixJ9xvzIYyvkfPnRIHm/exNVgwJA35Opy5VPza+nSN0EOHzwgE99/T/bEuC+brp6EqFDx2pCOO7h3d0e71s90lHwFCv3z3xPk1Re7OtoULlxY2j7TUbJGqn9HzOYRnY+AoB4dfrFjO9m6fYfj3NVjwupxYTYCgtHvwLbYU4FQ0Gtp6I+fqTl20TmyyHu1i0uedLpE/vXGWHk5yDmVzptVptU7N9lwxuqDMnyV+2OXKhzUKZVTut+d1h8WwZnVGhEqMCQuOR3KoNxQMFI6VCko5Qqcv/UTBvTuKT98t8pxejdXuVleeq2P62lv2bRJOndo5/jZ9ZUqSI+Bwxz/3e1DLXfOHNJrwCApWSa8BXKOHomVNi2by4mTzlBYsUIF6T3IeR6hjIFXm+3btsqwgf1ky5Yt2t3cW+t+uf/Bh6RU6TLatqrBgf37RX1orXN5qiRxB4ULFZQOnbtI95dfct2nbiXFY0ePyKQJ42VJCE+StHmmo9R6wH19C3Vwr5Byw/U3SPd+A4w/PIMhHT58SAb06Ob6xE3Kfjlz5pI+AwdL8ZIl/52Q6rZvt/OvW6++tHyqnXyx5DN5e+TwoOM2/K0xUtJlXkWwTucjIKgFy0YNGyzLvvmagBBkMLiCENI/SyJvfb9XFmyIlUP/vDdB1+3cDOQE6XVHtNxSNEryZkvf++fqkUo1CdBty5U1o7xevYhcXyhKnlq4Vf7Ye8K1XYWCkTK0elHJE5n6Wx86n5Q//2vfCRmxMkZ+8Tg3r/3VvTK3NK+YV0rkSv/HIr0CwlXlysvAIW+4nuK8aR/Kh5OdE6Je7dVXbqxcJUUf7zkIN1W5RV55rbcpa6B9bOxhafVIY9e+wa5+hHOwn3/4Xoa+3t/1VobX/tR3tXYdO8m9tZwTMJP2iT18WHq+8qJs3bxZe2p5cueSQ4djjQPCL9+vknlzPpLfXG4JeB304SaPBFaxdG4JUv+BWq7fn9t36my84mXQcHDwgAzo21vWr/1La5PYQL1h9c57qsuzzzvX50hs4xYQatZ+UHLnySMzXa5IpTy4uo3y/EvdpOptd4R8XucjIJw8eVI6PPW47N+/3yUgcIshEYWAEOTXVn3I7zp8Sh6Zv0VOej1P6NI/c0aRhtfkleeqOF/dHPJfiWFDdWVDffh73fK4t3h2qXdVHmn/hfOSWuKh6l2VW16+NfHSofME1LyLYLdUUvMmycSjrdpxTLp+uUNOuy/N4KlSvXh26VO9SOBdD+m1nTpxQpo+XNex+yuvKScDBg9z/Sbm9g+sunypAoLb+wCea/ekbN3mPZGwXftn5e57awaWVA5127RujXTp/JyjeaVrr5VeAwaHuhtNuwSJOx4nzRupxWbC2/q+PkTKezwdkXD2rDxc5/7wdpyil9cVhEMH9svA3j1l/YYNrsdR4+a2loVq3PLJp6RuA7WexX+/f9//b7kM7Oe8shQdHS39Bw2RPJelzb8P6sPukQYPhW1zR7W7pfML6mqL82/H6wqI6cHGTZgk+QsUDKnb+QgIXo+dZsmcSabPW8gthn9GioDg8SurJiD+tf+kjP/FmTC9fsvV7YSbi2aXF24uINHn4RttyvPovXSXLNrovNcd0l+liKx8/ErPplsOnwo8FrnjyGnXNneUyC5DqhcN9VDadm+sipGV24/J1lj347ntoHLhKLm9ZHZpUs78kVHtCf3TwOsDX31LUnMFUm5u7a+/8Sbp0ae/6yG3b90ivV59WQ64LO2c2OGKK6+QavfUkGrV7wtpsaKWjevLkWPHHcd7+tnnRL3ZMC22X3/+SXp37+a6q8uvuEKuKV/x38+fBXPnuLaLLlRQ3ho/yfVns6d+KFOmuD+apjpcfvnlUjg6Wlb+738SHx98cTKvgPDuO2/Kok8WJDt+lsyZ5dY77pQCBQtJVLZscuDQQfnjl59lc4qrGFmzZJYpsz9OFtyGDuwnK75d5qinVNmy8saot9OCXdQcB3Vla/065yOUUdmzS/Ua94n8s6Lq119+IWodi5RbkSLR0qPvQNd5KA8/WFNN+k/11vqpNlK7XvIFwbx2ej4CwowpH8oMl0cdH23RUho0sXspa5PBJCC4aHX/cod8uzNO1IqFJtuchqUlb2Qm18cKTfYTblv1+GDNaRvFdP6t+t4wtX4pKZ3H+zJ9+4Xb5McY5wz4xHMdUqOI3FE8/FdNp6xZ/Zt0MO6MdPx0q2yMVffOQ7syoFpF58wib9UqFpj7kdbbqIG95etvVzh22/nFbnLHXdWS/fexI4fJ4iVLHG3Vley0mRAAACAASURBVAP1IeW2nT17Vt4YNMD1gyVpe/Vt9rL8BeTGG2+Uth2dVweStvX6FpiWAeGdUSPk88XJH+VUY1igQAF5Y/TbkiPnf4/MLl/6jQwbpO6/O7fKN98s3Xom/9a9Ye2awATRWJeJnkWKFJFOXbpKdNHiEhERKQcPHpTvVv5Pxo97x3Po3QLCqZMnpGkD59WhmjVrypNPd5TMSRaf2rB2tfR5raccTXE+9eo+JC3atP/3uF4BQS2spRbYSovt740bpOuz/x0z6T7HTZgs+Qv8d5VCvW+jdcvmrn9JBQsUkDETnJNYvVYAVccpVqyYPPt8V8mZ5OmXdk+2ct1/5syZZOb8hSH9HadvQEiQD8e/J/Nmf+TKzzoIyVkICEk8vt58RIas3Cv740JfHlndrm957WXy+LUXfjEfVcovO49Lu8XejzC6/VXUKZNTut1ZWNQ9Sbfth13HpUOQxyLvKJ5dhtRIu6sHKc9h1Y7jMuWP/fLdTu+A4nbeD5TJKR1uLhgIbWm1xezZLe2eaOnYXYNGTeTRVk8k++/dX+oqq//43dF25rxPkn3guJ2b+jb++6+/iAoMuu3WqlWl1kP1pUIl95np6R0QNv29Qbp0dP+Q8prjMHPaFJk++UNHaSVKlpQhI0ZLliSr2f34/XfSv5f7I6YTp85I9gGVuMOBvXvI999950rnFhDURFI1oTTpduVVV8nrb4xy3Uevbi+4zlNIWu/5CAheY9uz7wC57oYbHee+cf26wBWqY8ecK6i6jVWjh2q7voFU7Xj2gkXJFvlS/23Z11/J8KGvO5fgFJFQ57ukVUDo3ruvo/63hw+VA4fcl7ouWqyYjB77vu7PzVc/JyAkGe4V24/JwOV7ZO+x0yIh3suOzJQh8O6Ax6/L5/kBez5/o9Q8gf7f7g75VkPuyEwy/sESQV+5/MD0jbI/zn1SgPqWOKVuSbk8HR+LPBcQDsh3O52Xyb1tE+SxCvmkWcV8aRwQ9ki7J1o4DpshYwaZvSD5WxS9AkIo/1CeiY+XX3/5Sd4YNFCOH9fXnTUiQp7r+pLccqvzrXTpHRC8vsU2bf6YNG72qOsQnYk/LY1c3m4ZEREhnV94WapUvfXfft27Pier16xx7OepZzrI/UmWqU7aYNf2rdK+7VMhBYS/Vv8hA/v2dlx+Hzt+ohQo5P46730xu6XN486gmPQRuSED+8n/XG4xpNUVhNhDB6VV86aOGq+46mp5tVcfyeXyjpD406dlcP8+8sP3zvBUu07dwNLfSTevgNCmfUepVdv59IZ66+lrr7wk6kmWlNuMuR8nC35ef7tpFRBM/93tN2iIlKtw8a8QalpXatoTEFz03vwuRmavjTVaGVF9957dsHTgCYAol5ULUzNIpn1nrTkkw1fFhLRGQ6VC2WRc7eKeh1BzMMb97D0PY3iNolK1eHbTU9S2V/c91ZWc5nM2yeHTZjdBS+TKIqNrFZNC2dP+FoO6IfvBe2Nlwbzkb+NTZzg3ydKuy5d9I8Ned15Gf6JVC3mwkcnb+BKka4enZcfOnaImo+k2taZB0WLJxzO9A0KLhnXlaJzzyZhXe/eVG29K+aRGYgUJ8njzpoF76Cm3Z57tLDVq/reipNf5D39zTNAVCENdB2HJooUy5k3nlYIPp38kOXJ6v/jKbf/tnn5G7nvw3K2K9L6C0K1rZ1m7ZrXDT/fEi9d5lSl7uQwd9VZIAUG9s6BESffVH9WCXGv/cga6t8e9L4WL6pdvP98BQd2a6tmvv1xTroLuz8t3PycgeAz5im3H5I99cfL+LwdCvPt97i555SJR0rpSPqkUfWGXrG380SbZ6jGhMLHkzBlEvm3lPTHxRHyCdFy8TX6PcX8sUi34NLRGEcmZNe0u4atzU+Fg2KoY+XbrUdlt8DbMO4tnlxuKREnTdJykqM5vwvvvysdznPcwGzZtJs0eO/et0isgvP3ehMBkOtNt1Yrloi7lL/50ofZtgLM+/jTZZLn0Dghe+w8eEEQ2rV8nXZ7rGFZAKF26TGCiZ558+TwpUxsQ1PoGWbJ6z8txm2x53/21pV2HThc0IKi5MGpOjNf246qV0t/l3SBmAWGslCjp/iI3r4AQ6poI5zMg1Khxr9xU9TapcktV0z9JX7QnIAQZZvWt8OjJM1Jn5iaJi1fvDwhtopx61K5RudzyXJXQHutJj980davhtgnrgj6uM/CeInJ3Se+JhT0+3yGfb3d/26M658bl8sjzN6dtjep2wrnHHE2uGiRIy3J5pW2VgokTttOD9N99btm4Xl54/jnHbHm1+MzE6bP+CQhLZdjryZ9UyJwpo4weNz7sVQvVI3ZqgZeXO7aVv7d6zzNRz6m3bZ/4weu9tkJaTVJ0+yBW73To3quvXF3e+1uZWtegVTPn+gzJryC4n79aYOnpMCdnppyDoBZEGvNm8PdphPoLlTQgpPctBq8rCD27vyrXVb0z6Cm7jZlfAoL6lyUyIkLeeXe85M6bzzGPItSx9kM7AkKIozzp1/0yZfWhkBdKCnwTFpHutxeSm4tkl4LZ03ehJLcyFm2Ild7L3Fd9vL5QNhlxb1GJ8Lgd8uOu49I+yMTEHFkyyhePhreyn9u5/ro7Tvot2y3bjob+WKPaz/lcKCnpeTepX0dOp1jmN2lAcPsHuE69BvL4U21D/I0L3kw9Vji4f1+Ji3POT7jtzruk0/Mv/DsR8uXnOsi69esdO6x6623ywqs9U30+brUWLJA/EBCKlfJeITG0gOC+GqFaVOnpjue+qXttoV9BSJ+AMO7NkfKZy2qM6i2evfu/LoWii6TK3isghDLHxQ8BoUbN+//9Spf4ivQbK1eWKlWd83RSNRAWdyYgGAyuWmpZrULYa+mukK8mqGsORXJmkderRcsV+c/fssCqrKOnzgZuEazZl/LedYLMblgm6MTE15buksVB1lSYXr+UlAryWKQBqzw2f4vEHIuXwydDWx1J/bHfUzKHtLo2n1x12fk1Tayrcf06Ep8iIKgJdn379pXLy1/rusRuWgYEdR5bNv0tnTs87aCOzJZNBr0xUoqXKBn42a4d26R9m9auQxLKh4luLN0+bHLlzh0ICJdfmfw9IEn3FXv4kLRq5nxPQShzEC6FgHD40MHAPIuUm3pEtX2n5+Wee+/T0Qb9uVdAGPf+B5K/cLDw4X5V5mK5grB4wXx5d9wYxxM8EZGRMm32fIfJ+2PfloUfO/97Wvxup2qALOhMQAhjEA8ej5cXvtopf+07KepSfqhb/atyS82yueS6QtlC7ZLqdm+sjJGZa5JPBLsmf6R8UMf7bY2/x8TJUwu3eR67VcW80u6m1K0CtyP2tPwSExd4WVOom5IumTuLVI2Oks5VvVd8DHV/qWmnLverZ8RTbmrWfr36DaRZowbJfpQpc2aZMXdB0HXvwzkfr2/Jw0a/LaXLlA3sMthSy527dJU77rk3nEP/08f9wyZTxoyi5iBcd8NNnvs+sH+ftG7hnLAZSkC49bbbpVPXl4LOEUjtFYQrr77GaMVKVai6KvNgvf/G3usc6jdqLI+1ejIV7iJeAUEXnvbt2SVtnnAuDX2xBISPpk2WaVMmORZoIiCk6tclrM4EhLDYRM6cTRD1WKS6hH/k1NkQZyecO1j9K3OLeg3zZen08qaUJTWd9bdsPnpubYfIjCJTGpQOevVArXmg1j5w29StErUIUfFUrBS5avsxGbYyRjuJMunxVTjoXy1a1KuoL8Trnt0s3P7xVwFh66aNgRX9km4qIMwKLBSTlpv3/IKkAeH06dMyYugg10fuMmbKJL37DZDyla4L88S8z0E9h36D51MMIn16vCK//PSj47ihBISIrFlkyMi3pNg/V0ncTr7+AzVd/y5DnYOge4ohFLDpH46XmTNmuDbt23+AlL/OuVZBKPtVbcJ9imHc6BHy2WfJF7VS+7tYAsLUSRPlo+lTHQwEhFB/M9KuHQEhDSy/3XZUXvtmtxw7rV/UJunhptYtKcVyZ5W0eIdBsDI2Hz4lLeZvkVNnEqRlpbzy9I3e3/4n/rBP3vn9gOfu1JMLY4M8FunVUT2ZoG4hPDJ3s6gVH0Pd1CqxdxbLLt3vKCw5ItL2aYlQz8Gr3dxZ02TShAnJfvxw4yby+WeLJDbFkrZj3v9ACga97BvO2bh/OKtXOA8Z+Wayt+jNnjldpn44wfVdAuqRQvVqXhViwtlmT5ssUyY7l0hWy0/ffmfy1SWT7t9r2eoOzz0vd6slggNbgjSpV0dUyEm5vT5shKhv+V5baq8gvPXuBxJdJHXzBA4fPihPPtrMdcGrrFmzysRps0R98IWzjRo8QL765htHCFJLeasXe2XK5D6eQwb0lf8t/9ZxyArXXid9BgxK9t+91kEY8XY6PcWQkCCTJo6XubNmOs7v+grlpccg50vRuMUQzm9PaH0ICKE5aVvtij0VmMQ4b+1ho9sO1UrmkHL5I6VFJe/HtbQH1zRQ374Hr9gjH687LEtbXCGZ/lmbPWW3dQdOyvNLdsg+j5UkdY9Fep3Gxv0n5bNNR2RSkOCRsq8655uLRMktRaICix1djNsXixfJ26NGJDu1ApflC6zUpp42SLqFej/0+LGjgcmPana1bls4f668P26Mo5l6zE29oS/pB75aVKd929Zy7OhR193eV+t+ufGmm6Ry1dtD+G1K/jTPpr83SpeOyRfYUTvJnCmTzPz4U9f9rVi2NPDWx5Sb24uMPp41TSakCGKqX4miRWTEuA9c9+82NokNU15B2LRxg/R7rXtgmeakm1pZVD0ymiGj6eLl/+3l9OlTMmLw67JixXLXqxlXX1NO7qtZU6rd67xdpRt/9XO3EKTce/QdIBWvdV4V2rN7t/Tv1V22b3PeQjRZSTG9AoJ61fbLz3eSHTucL5WbMnO2ZMvufOqKgBDKb0p4bQgI4bm59lLTEY6cOiP3Td1odMtB/XN7S3SUDKheJN3e4xAXf1ZOxSeIWjnRa1uw/rD0/3aP58+HVC8id5Qwe9/Cz7uOS5cvd8pxg6srCZIgi5qWlexZM0mEegPWRbp99flieXPkcM83/CWedsF8eWTMJPfLzClLa9uyuRw/cSKwCt5b747/58eJc7ATWyfI3JkzZMqkia7fTNULmNQjjCm3I0eOSMumDT01s2TJIleWLSN9h7kvL6w67t+3V5Z987XUe7jRv/s5eiRWBvXtLX/++Ydj32UvvyJwNSPpdnD/vsBbEzds3OhoX6pM2cC7G5JuwZZavunmW+SVnslfg71yxbeBRapShjSvgKD+u9tSy+q/V7u7ujzz3POirsp4bynHJ3lLNRnz6aeekDiX5Y1VS/WBXqJUKenyYjeJTrHI1blnoTLIsSOx0u2FLjJqzLvJdt6l3ROyaZvzw1Q9Zjp5lnopVvK/nxc7tJENm7a4lnLhA0KCtGjayPGOi8ST9QrZBIT0+weSgJBOtmp+wpgf9sm6g/rV7xJPoWL+SHk3yOTBdDrVf3d7ywfrPA9RJTpKBoURYILtM+XBMmRIkEZX5w0sXV3gAjwWGo5vl2efkU0uH3RJ99WuYye5r1btEHbvfssgKltkYCGXiMhssmr5MjkUG/yNncGuVgR7R0EIJxho0qTZo9Kk+WPJmi9SM8/HuL+A6K57qsuNlatI1syZ5VR8vCxeME/+XO1caS/YFQf1Df+nH753PcWCl+WVR1u3C/xsze+/yaJPg8/1cHsXw9HDh6SFyxMViQdUr0P2upIwbtRwafxYK3mwrverrt99a7Qs+vSTUIld2+XJk1fGT5me7Gc7d2yXHi91dVz9UI3y5M0rT7RpJ1EREXL85En5bN5sWb3W+TeuguGAIcOk7BXOJ07S6xbD+2PfkYUfz5Orr7pSrrimgnz7f0vkYKz71S1VS/Ua90r7zl1dXQgIqfq1CtqZgJB+trL3WLx8ufmIjPwuRhJCuKZwIQNCx8Xb5XuPdx2ob/TqscbSeSKMtUINCNVL5ZQm5fNIpYLn7wkP42JcOoQSENTz+mpmeSib133zUPqqNn0GDvZ8aZP6uXqiodcrL8vmTX+HuktHu8qVK0vXV3ome4LgzJl4aVz3waBXU1QAiE9x6yVZkOrwrNx3/wOu57Vt62bp9LTZGhJe3+u9Xve86JOP5d13ki81HCqSeqtmt179gj6lMn3KJJk51fnGxFCPkTt3Hnl34uRkL/o6e/aMjHpjqCz96v88dxORJbOcPO39AjoV3rp2ezXwNsyUW3oEBPW7MmbUCPnyi89DKj1XrpzycvfX5Gr1ynCXjYAQEmNYjQgIYbGZd3p03mbZd/yMHAryrP+FCgj/tzFWeizbLV6LF6r1DlRACGcLFhDUVIjC2bPI5LolJSpr+Pd5wzmvtOpz6uRJadrgIc/dlSxVWoa/+U5IL/8a0Lun/PDdqrBOTV0Cf6ZTZ6l2T42Q+vfr0U3Wrd8g6vZAONuEabMkV67/XuGs9hEfHx94kdWB/d7v7vA6Vv2GjeWxx4M99pcgY4cPkc+//D85q2a8ajbl0XvA6/Lqi85vnV4BQe3y3KuAz62Gabqpp1R0Ez3HjB4uv//2u+za6bwtoDueWj+h1ROtpU4D520ir1skun2qWxsj3hrr2Sw9AsLemD3yQqf2Equ5EpZ4UrffVU2eD7J0NAFBN8rh/5yAEL6dUU/1T9ofMXEydPkeWXvolGvfCxEQYk+ekWc+2y4bDrjfClEf4gublJW82cJ7gsArICiPnrcXkpuio6RQjnR4qZLR6KSucbBv/SVLq4DgnEjodsSlX30hI4YOMToZ5Vj7wTpyTfkKQZ8YcNvp6j//kMXzZ8uy5SuMjqkauwUE9d+3bt4kv/78o3zwXvJ75V4HKFa0qNR+qL7UerCO9hxOxMXJvJlT5aNZs4KGhLx580jDJo8E3szX5dn2jnkawQKCOolP5s+V6ZMnyvHjZq8XDyUgqP2rBZSmThwvS5YsCeG64n8saqybPdZCGjV1rh2h5lvMmzVd5nw0S+Li9OcdGRkpTR5pJrXrNhB1i8FrS4+AoG6LdGijXwMiW2Sk1H24oTRulvx2VspzJSBo/3TCbkBACJsu/I6fboiVASv2SHyKr+wXIiBsjz0tDWdv8iym9XX5pPX1+cMuNmVAyJxR5O5SOaXvXeYvLAr7JNK5Y6cnH5Pd+5PPgE885Ix5CxwTxXSnM3PqJJk9879Jjeoff7Uwk9rUt8hMmc6FNbUY0dQ5H+t2F9LPO7dvIzt37Ay0PXv2bLIP1YwZM/576Vytm9D2mQ5SrXrwxZUO7osJvEJ5y5Ytckbt759bC+r8Eyf81a79gLRs41wJMpQTblLv3KuG1VULZZN0vzPmnbvXH7Nrp/R+9UXZdyD5QmHdevaW627Qrz8w/p3R8tnixYEP8aQm6ljKRP1ftRUsWEiGjX5LsrpcotfVol74NHni+MBURLUyUNKJlYHj/DPW6sf3VK8h7TTvn1CTGof06Sk//PRzYKEhdTk/8Lvzz++NejLjnmp3SdvnXtCdWuDnzR6u6zrZc+ioN6V4Cferiuo15+vX/uXYv5qsql7wpK6edHqmbcA1cfwSf7cTfzcK5b9MRr03MaRzVG9X/ewT9XeWfAvnby+kA/qoEQHhAg62Wixo+bZjsvOf9w9ciIAQ7BZA9iwZZXaDUpInFQs6Je5f/WNwfeFs0v22QlIkFYssXcDhukCHTpCVS7+WPTExgeOXLFlSrqt8S7qey/bNf8tvv/4qJ0+ckKwREXJ52TJyVcVwF1ISWb9urfy48n9yOj5e8l2WTx6om3yVydQUM3/2rMAEvWLFikmNEOd5hHO8tb//LGvXbQh84ObLl0+q3Hq7ZItK29ecH4jZLT/8+KMciz0cCB/FS5aSStffIFmyms/9UTUeP35Mlnz6iRw6dFjy5M4tNe6vLTlyeL++OhyX1PZZvPBj2bPn3JNTBQoUlPvrnHtVNtvFIUBAuIDjoIL9wRPx8vj8LbIn7oyc74AwcPkemb/usKuA+kYz++HSUixX6i7/JwaEOY1KS+6smST7JTrX4AL+mnBoBBBA4IIIEBAuCLvzoF9sOiJrYuKkYxq/PtmrvE1qUaTPd8iu4+6zm6/MFyEf1j33sp/UbCO/3yudKqfuvQ2pOT59EUAAAQTCEyAghOd2yfd6YsEWWe14y2NiWQnS565oua9M8lnql3zRFIAAAgggELIAASFkKnsa7jkWL3Vnej8HX7Vodhl+X1F7CqYSBBBAAAFjAQKCMdml36Hl/C2y44jz5TfnKkuQyQ+VlMJMJLz0B5oKEEAAgVQIEBBSgXepdo1XL40IsmX2eJnTpVov540AAgggYC5AQDA3owcCCCCAAALWCxAQrB9iCkQAAQQQQMBcgIBgbkYPBBBAAAEErBcgIFg/xBSIAAIIIICAuQABwdyMHggggAACCFgvQECwfogpEAEEEEAAAXMBAoK5GT0QQAABBBCwXoCAYP0QUyACCCCAAALmAgQEczN6IIAAAgggYL0AAcH6IaZABBBAAAEEzAUICOZm9EAAAQQQQMB6AQKC9UNMgQgggAACCJgLEBDMzeiBAAIIIICA9QIEBOuHmAIRQAABBBAwFyAgmJvRAwEEEEAAAesFCAjWDzEFIoAAAgggYC5AQDA3owcCCCCAAALWCxAQrB9iCkQAAQQQQMBcgIBgbkYPBBBAAAEErBcgIFg/xBSIAAIIIICAuQABwdyMHggggAACCFgvQECwfogpEAEEEEAAAXMBAoK5GT0QQAABBBCwXoCAYP0QUyACCCCAAALmAgQEczN6IIAAAgggYL0AAcH6IaZABBBAAAEEzAUICOZm9EAAAQQQQMB6AQKC9UNMgQgggAACCJgLEBDMzeiBAAIIIICA9QIEBOuHmAIRQAABBBAwFyAgmJvRAwEEEEAAAesFCAjWDzEFIoAAAgggYC5AQDA3owcCCCCAAALWCxAQrB9iCkQAAQQQQMBcgIBgbkYPBBBAAAEErBcgIFg/xBSIAAIIIICAuQABwdyMHggggAACCFgvQECwfogpEAEEEEAAAXMBAoK5GT0QQAABBBCwXoCAYP0QUyACCCCAAALmAgQEczN6IIAAAgggYL0AAcH6IaZABBBAAAEEzAUICOZm9EAAAQQQQMB6AQKC9UNMgQgggAACCJgLEBDMzeiBAAIIIICA9QIEBOuHmAIRQAABBBAwFyAgmJvRAwEEEEAAAesFCAjWDzEFIoAAAgggYC5AQDA3owcCCCCAAALWCxAQrB9iCkQAAQQQQMBcgIBgbkYPBBBAAAEErBcgIFg/xBSIAAIIIICAuQABwdyMHggggAACCFgvQECwfogpEAEEEEAAAXMBAoK5GT0QQAABBBCwXoCAYP0QUyACCCCAAALmAgQEczN6IIAAAgggYL0AAcH6IaZABBBAAAEEzAUICOZm9EAAAQQQQMB6AQKC9UNMgQgggAACCJgLEBDMzeiBAAIIIICA9QIEBOuHmAIRQAABBBAwFyAgmJvRAwEEEEAAAesFCAjWDzEFIoAAAgggYC5AQDA3owcCCCCAAALWCxAQrB9iCkQAAQQQQMBcgIBgbkYPBBBAAAEErBcgIFg/xBSIAAIIIICAuQABwdyMHggggAACCFgvQECwfogpEAEEEEAAAXMBAoK5GT0QQAABBBCwXoCAYP0QUyACCCCAAALmAgQEczN6IIAAAgggYL0AAcH6IaZABBBAAAEEzAUICOZm9EAAAQQQQMB6AQKC9UNMgQgggAACCJgLEBDMzeiBAAIIIICA9QIEBOuHmAIRQAABBBAwFyAgmJvRAwEEEEAAAesFCAjWDzEFIoAAAgggYC5AQDA3owcCCCCAAALWCxAQrB9iCkQAAQQQQMBcgIBgbkYPBBBAAAEErBcgIFg/xBSIAAIIIICAuQABwdyMHggggAACCFgvQECwfogpEAEEEEAAAXMBAoK5GT0QQAABBBCwXoCAYP0QUyACCCCAAALmAgQEczN6IIAAAgggYL0AAcH6IaZABBBAAAEEzAUICOZm9EAAAQQQQMB6AQKC9UNMgQgggAACCJgLEBDMzeiBAAIIIICA9QIEBOuHmAIRQAABBBAwFyAgmJvRAwEEEEAAAesFCAjWDzEFIoAAAgggYC5AQDA3owcCCCCAAALWCxAQrB9iCkQAAQQQQMBcgIBgbkYPBBBAAAEErBcgIFg/xBSIAAIIIICAuQABwdyMHggggAACCFgvQECwfogpEAEEEEAAAXMBAoK5GT0QQAABBBCwXoCAYP0QUyACCCCAAALmAgQEczN6IIAAAgggYL0AAcH6IaZABBBAAAEEzAUICOZm9EAAAQQQQMB6AQKC9UNMgQgggAACCJgLEBDMzeiBAAIIIICA9QIEBOuHmAIRQAABBBAwFyAgmJvRAwEEEEAAAesFCAjWDzEFIoAAAgggYC5AQDA3owcCCCCAAALWCxAQrB9iCkQAAQQQQMBcgIBgbkYPBBBAAAEErBcgIFg/xBSIAAIIIICAuQABwdyMHggggAACCFgvQECwfogpEAEEEEAAAXMBAoK5GT0QQAABBBCwXoCAYP0QUyACCCCAAALmAgQEczN6IIAAAgggYL0AAcH6IaZABBBAAAEEzAUICOZm9EAAAQQQQMB6AQKC9UNMgQgggAACCJgLEBDMzeiBAAIIIICA9QIEBOuHmAIRQAABBBAwFyAgmJvRAwEEEEAAAesFCAjWDzEFIoAAAgggYC5AQDA3owcCCCCAAALWCxAQrB9iCkQAAQQQQMBcgIBgbkYPBBBAAAEErBcgIFg/xBSIAAIIIICAuQABwdyMHggggAACCFgvQECwfogpEAEEEEAAAXMBAoK5GT0QQAABBBCwXoCAYP0QUyACCCCAAALmAgQEczN6IIAAAgggYL0AAcH6IaZABBBAAAEEzAUICOZm9EAAAQQQQMB6AQKC9UNMgQgggAACfRZK4wAABV1JREFUCJgLEBDMzeiBAAIIIICA9QIEBOuHmAIRQAABBBAwFyAgmJvRAwEEEEAAAesFCAjWDzEFIoAAAgggYC5AQDA3owcCCCCAAALWCxAQrB9iCkQAAQQQQMBcgIBgbkYPBBBAAAEErBcgIFg/xBSIAAIIIICAuQABwdyMHggggAACCFgvQECwfogpEAEEEEAAAXMBAoK5GT0QQAABBBCwXoCAYP0QUyACCCCAAALmAgQEczN6IIAAAgggYL0AAcH6IaZABBBAAAEEzAUICOZm9EAAAQQQQMB6AQKC9UNMgQgggAACCJgLEBDMzeiBAAIIIICA9QIEBOuHmAIRQAABBBAwFyAgmJvRAwEEEEAAAesFCAjWDzEFIoAAAgggYC5AQDA3owcCCCCAAALWCxAQrB9iCkQAAQQQQMBcgIBgbkYPBBBAAAEErBcgIFg/xBSIAAIIIICAuQABwdyMHggggAACCFgvQECwfogpEAEEEEAAAXMBAoK5GT0QQAABBBCwXoCAYP0QUyACCCCAAALmAgQEczN6IIAAAgggYL0AAcH6IaZABBBAAAEEzAUICOZm9EAAAQQQQMB6AQKC9UNMgQgggAACCJgLEBDMzeiBAAIIIICA9QIEBOuHmAIRQAABBBAwFyAgmJvRAwEEEEAAAesFCAjWDzEFIoAAAgggYC5AQDA3owcCCCCAAALWCxAQrB9iCkQAAQQQQMBcgIBgbkYPBBBAAAEErBcgIFg/xBSIAAIIIICAuQABwdyMHggggAACCFgvQECwfogpEAEEEEAAAXMBAoK5GT0QQAABBBCwXoCAYP0QUyACCCCAAALmAgQEczN6IIAAAgggYL0AAcH6IaZABBBAAAEEzAUICOZm9EAAAQQQQMB6AQKC9UNMgQgggAACCJgLEBDMzeiBAAIIIICA9QIEBOuHmAIRQAABBBAwFyAgmJvRAwEEEEAAAesFCAjWDzEFIoAAAgggYC5AQDA3owcCCCCAAALWCxAQrB9iCkQAAQQQQMBcgIBgbkYPBBBAAAEErBcgIFg/xBSIAAIIIICAuQABwdyMHggggAACCFgvQECwfogpEAEEEEAAAXMBAoK5GT0QQAABBBCwXoCAYP0QUyACCCCAAALmAgQEczN6IIAAAgggYL0AAcH6IaZABBBAAAEEzAUICOZm9EAAAQQQQMB6AQKC9UNMgQgggAACCJgLEBDMzeiBAAIIIICA9QIEBOuHmAIRQAABBBAwFyAgmJvRAwEEEEAAAesFCAjWDzEFIoAAAgggYC5AQDA3owcCCCCAAALWCxAQrB9iCkQAAQQQQMBcgIBgbkYPBBBAAAEErBcgIFg/xBSIAAIIIICAuQABwdyMHggggAACCFgvQECwfogpEAEEEEAAAXMBAoK5GT0QQAABBBCwXoCAYP0QUyACCCCAAALmAgQEczN6IIAAAgggYL0AAcH6IaZABBBAAAEEzAUICOZm9EAAAQQQQMB6AQKC9UNMgQgggAACCJgLEBDMzeiBAAIIIICA9QIEBOuHmAIRQAABBBAwFyAgmJvRAwEEEEAAAesFCAjWDzEFIoAAAgggYC5AQDA3owcCCCCAAALWCxAQrB9iCkQAAQQQQMBcgIBgbkYPBBBAAAEErBcgIFg/xBSIAAIIIICAuQABwdyMHggggAACCFgvQECwfogpEAEEEEAAAXMBAoK5GT0QQAABBBCwXoCAYP0QUyACCCCAAALmAgQEczN6IIAAAgggYL0AAcH6IaZABBBAAAEEzAUICOZm9EAAAQQQQMB6AQKC9UNMgQgggAACCJgLEBDMzeiBAAIIIICA9QL/D/xAIzGHPmPhAAAAAElFTkSuQmCC;" vertex="1" parent="1">
                    <mxGeometry x="154" y="10" width="520" height="520" as="geometry"/>
                </mxCell>
                <mxCell id="4" value="&lt;font color=&quot;#1a1a1a&quot;&gt;&lt;font style=&quot;font-size: 25px&quot;&gt;2021/11/20(Sat) 10:00-17:30&lt;/font&gt;&lt;br&gt;&lt;/font&gt;" style="text;html=1;strokeColor=none;fillColor=none;align=center;verticalAlign=middle;whiteSpace=wrap;rounded=0;" vertex="1" parent="1">
                    <mxGeometry x="224" y="350" width="380" height="20" as="geometry"/>
                </mxCell>
                <mxCell id="5" value="&lt;font style=&quot;font-size: 25px&quot; color=&quot;#66b2ff&quot;&gt;&lt;b&gt;#vscodejp&lt;/b&gt;&lt;/font&gt;" style="text;html=1;strokeColor=none;fillColor=none;align=center;verticalAlign=middle;whiteSpace=wrap;rounded=0;" vertex="1" parent="1">
                    <mxGeometry x="510" y="150" width="144" height="20" as="geometry"/>
                </mxCell>
            </root>
        </mxGraphModel>
    </diagram>
</mxfile>